<svg width="15" height="18" viewBox="0 0 15 18" xmlns="http://www.w3.org/2000/svg">
    <path d="M13.125 0H1.875C.84 0 0 .84 0 1.875v13.75C0 16.66.84 17.5 1.875 17.5h11.25c1.035 0 1.875-.84 1.875-1.875V1.875C15 .84 14.16 0 13.125 0zM3.75 13.063a.935.935 0 0 1-.938-.938c0-.52.418-.938.938-.938s.938.418.938.938-.418.938-.938.938zm0-3.75a.935.935 0 0 1-.938-.938c0-.52.418-.938.938-.938s.938.418.938.938-.418.938-.938.938zm0-3.75a.935.935 0 0 1-.938-.938c0-.52.418-.938.938-.938s.938.418.938.938-.418.938-.938.938zm8.75 6.875c0 .171-.14.312-.313.312H6.564a.313.313 0 0 1-.313-.313v-.624c0-.172.14-.313.313-.313h5.625c.171 0 .312.14.312.313v.624zm0-3.75c0 .171-.14.312-.313.312H6.564a.313.313 0 0 1-.313-.313v-.624c0-.172.14-.313.313-.313h5.625c.171 0 .312.14.312.313v.624zm0-3.75c0 .171-.14.312-.313.312H6.564a.313.313 0 0 1-.313-.313v-.625c0-.171.14-.312.313-.312h5.625c.171 0 .312.14.312.313v.625z" fill="#000" fill-rule="nonzero"/>
</svg>
