<svg width="22" height="15" viewBox="0 0 22 15" xmlns="http://www.w3.org/2000/svg">
    <path d="M6.828 7.5c2.096 0 3.793-1.677 3.793-3.75S8.924 0 6.828 0C4.73 0 3.034 1.677 3.034 3.75S4.731 7.5 6.828 7.5zm2.2.75h-.28a5.097 5.097 0 0 1-2.3.563c-.826 0-1.598-.211-2.3-.563h-.279C1.733 8.25 0 10.064 0 12.3v1.012C0 14.245.722 15 1.612 15h9.672c.89 0 1.613-.756 1.613-1.688V12.3c0-2.236-1.733-4.05-3.87-4.05zm7.282-.75c1.885 0 3.414-1.512 3.414-3.375S18.195.75 16.31.75c-1.884 0-3.413 1.512-3.413 3.375S14.426 7.5 16.31 7.5zm1.824.75h-.132c-.48.157-.987.262-1.526.262a4.868 4.868 0 0 1-1.525-.262h-.132c-.704 0-1.353.194-1.922.505.842.863 1.37 2.008 1.37 3.275v1.26c0 .072-.017.141-.02.21h6.096c.915 0 1.657-.705 1.657-1.575 0-2.031-1.73-3.675-3.866-3.675z" fill="#000" fill-rule="nonzero"/>
</svg>
