<svg width="24" height="16" viewBox="0 0 24 16" xmlns="http://www.w3.org/2000/svg">
    <path d="M19.2 7.385c0-1.36 1.075-2.462 2.4-2.462S24 6.025 24 7.385s-1.075 2.461-2.4 2.461-2.4-1.102-2.4-2.461zm2.4-4.923c.663 0 1.2-.552 1.2-1.231C22.8.55 22.263 0 21.6 0c-.663 0-1.2.551-1.2 1.23 0 .68.537 1.232 1.2 1.232zM21.6 16c1.325 0 2.4-1.102 2.4-2.462 0-1.359-1.075-2.461-2.4-2.461s-2.4 1.102-2.4 2.461c0 1.36 1.075 2.462 2.4 2.462zm-6-7.385c.663 0 1.2-.55 1.2-1.23 0-.68-.537-1.231-1.2-1.231-.663 0-1.2.55-1.2 1.23 0 .68.537 1.231 1.2 1.231zm0-6.153c.663 0 1.2-.552 1.2-1.231C16.8.55 16.263 0 15.6 0c-.663 0-1.2.551-1.2 1.23 0 .68.537 1.232 1.2 1.232zM15.6 16c1.325 0 2.4-1.102 2.4-2.462 0-1.359-1.075-2.461-2.4-2.461s-2.4 1.102-2.4 2.461c0 1.36 1.075 2.462 2.4 2.462zM7.2 8.615c.663 0 1.2-.55 1.2-1.23 0-.68-.537-1.231-1.2-1.231-.663 0-1.2.55-1.2 1.23 0 .68.537 1.231 1.2 1.231zm0-6.153c.663 0 1.2-.552 1.2-1.231C8.4.55 7.863 0 7.2 0 6.537 0 6 .551 6 1.23c0 .68.537 1.232 1.2 1.232zM7.2 16c1.325 0 2.4-1.102 2.4-2.462 0-1.359-1.075-2.461-2.4-2.461s-2.4 1.102-2.4 2.461C4.8 14.898 5.875 16 7.2 16zm-6-7.385c.663 0 1.2-.55 1.2-1.23 0-.68-.537-1.231-1.2-1.231-.663 0-1.2.55-1.2 1.23 0 .68.537 1.231 1.2 1.231zm0-6.153c.663 0 1.2-.552 1.2-1.231C2.4.55 1.863 0 1.2 0 .537 0 0 .551 0 1.23c0 .68.537 1.232 1.2 1.232zm0 12.307c.663 0 1.2-.55 1.2-1.23 0-.68-.537-1.231-1.2-1.231-.663 0-1.2.55-1.2 1.23 0 .68.537 1.231 1.2 1.231z" fill="#000" fill-rule="nonzero"/>
</svg>
