<svg width="25" height="21" viewBox="0 0 25 21" xmlns="http://www.w3.org/2000/svg">
    <path d="m11.122 20.628-2.287-.692a.473.473 0 0 1-.307-.582L13.646.985a.448.448 0 0 1 .559-.32l2.287.692c.24.07.375.332.307.582l-5.118 18.368a.447.447 0 0 1-.559.32zm-4.274-4.384 1.63-1.812a.482.482 0 0 0-.03-.672l-3.396-3.114 3.397-3.113a.479.479 0 0 0 .03-.672L6.848 5.048a.438.438 0 0 0-.638-.02L.807 10.304a.479.479 0 0 0 0 .683l5.403 5.278c.184.18.469.172.638-.02zm12.269.024 5.403-5.278a.479.479 0 0 0 0-.684l-5.403-5.281a.441.441 0 0 0-.638.02l-1.63 1.812a.482.482 0 0 0 .03.672l3.396 3.117-3.397 3.114a.479.479 0 0 0-.03.672l1.631 1.812c.17.192.454.2.638.024z" fill="#000" fill-rule="nonzero"/>
</svg>
